<?xml version="1.0" encoding="iso-8859-1"?>
<!-- Generator: Adobe Illustrator 18.0.0, SVG Export Plug-In . SVG Version: 6.00 Build 0)  -->
<!DOCTYPE svg PUBLIC "-//W3C//DTD SVG 1.1//EN" "http://www.w3.org/Graphics/SVG/1.1/DTD/svg11.dtd">
<svg version="1.1" id="Capa_1" xmlns="http://www.w3.org/2000/svg" xmlns:xlink="http://www.w3.org/1999/xlink" x="0px" y="0px"
	 viewBox="0 0 297 297" style="enable-background:new 0 0 297 297;" xml:space="preserve">
<g>
	<path d="M169.949,169.796c1.359,0,2.742-0.261,4.077-0.81l0.824-0.339c5.476-2.254,8.087-8.521,5.833-13.996
		c-2.254-5.476-8.519-8.089-13.996-5.833l-0.824,0.339c-5.476,2.254-8.088,8.521-5.833,13.996
		C161.735,167.294,165.733,169.796,169.949,169.796z"/>
	<path d="M151.434,28.267c1.359,0,2.742-0.261,4.077-0.81l0.824-0.339c5.476-2.254,8.088-8.521,5.833-13.996
		c-2.254-5.476-8.519-8.09-13.996-5.833l-0.824,0.339c-5.476,2.254-8.088,8.521-5.833,13.996
		C143.22,25.764,147.218,28.267,151.434,28.267z"/>
	<path d="M257.581,63.649c1.359,0,2.742-0.261,4.077-0.81l0.824-0.339c5.476-2.254,8.088-8.521,5.833-13.996
		c-2.254-5.476-8.519-8.09-13.996-5.833l-0.824,0.339c-5.476,2.254-8.088,8.521-5.833,13.996
		C249.367,61.146,253.365,63.649,257.581,63.649z"/>
	<path d="M29.549,78.757c2.672,0.89,5.384,1.345,8.06,1.408c-1.556,2.18-2.819,4.623-3.709,7.293
		c-4.806,14.419,2.986,30.005,17.404,34.811c2.887,0.962,5.822,1.42,8.707,1.42c11.523,0,22.26-7.292,26.106-18.825
		c0.89-2.671,1.344-5.382,1.407-8.058c2.18,1.555,4.622,2.816,7.294,3.708c2.886,0.962,5.822,1.42,8.706,1.42
		c11.522,0,22.259-7.292,26.103-18.825c4.808-14.419-2.984-30.004-17.404-34.811c-2.672-0.89-5.382-1.345-8.058-1.408
		c1.554-2.18,2.819-4.622,3.709-7.293c4.804-14.419-2.986-30.005-17.406-34.811c-2.887-0.962-5.823-1.419-8.707-1.42
		C70.237,3.365,59.5,10.658,55.656,22.19c-0.89,2.672-1.347,5.383-1.409,8.059c-2.178-1.556-4.622-2.817-7.292-3.708
		c-2.887-0.962-5.822-1.42-8.707-1.42c-11.523,0-22.26,7.292-26.104,18.825C7.338,58.366,15.131,73.95,29.549,78.757z
		 M64.359,61.352c0.89-2.672,1.347-5.383,1.409-8.059c2.18,1.555,4.622,2.817,7.294,3.708c2.672,0.89,5.382,1.345,8.058,1.41
		c-1.554,2.179-2.817,4.62-3.707,7.292c-0.892,2.672-1.346,5.383-1.411,8.059c-2.18-1.555-4.62-2.817-7.292-3.708
		c-2.672-0.89-5.382-1.346-8.058-1.411C62.206,66.465,63.469,64.024,64.359,61.352z"/>
	<path d="M76.388,158.771v-23.355c-5.081,2.119-10.622,3.283-16.377,3.283c-1.697,0-3.388-0.103-5.067-0.305v37.055L41.392,185.99
		c-1.45,1.128-2.585,2.609-3.298,4.302l-37.25,88.456c-2.298,5.457,0.263,11.744,5.72,14.042c1.359,0.573,2.769,0.844,4.157,0.844
		c4.184,0,8.16-2.466,9.885-6.564l34.529-81.993l26.537-0.368c-2.296-8.103,2.289-17.519,9.891-21.583l-11.77,0.163l60.062-46.715
		l58.064-15.868c-3.253-7.44-2.025-18.201,3.941-23.308l-17.937,4.902l29.856-23.221c4.674-3.635,5.516-10.372,1.881-15.046
		c-3.635-4.673-10.37-5.515-15.046-1.881l-2.254,1.753V45.955c0-5.921-4.801-10.722-10.722-10.722
		c-5.921,0-10.722,4.801-10.722,10.722v34.629L76.388,158.771z"/>
	<path d="M141.163,185.587c-1.753-0.55-3.766-0.799-5.966-0.799c-10.852,0-26.254,6.067-37.532,12.092
		c-1.47,0.785-2.098,2.598-1.43,4.125c6.582,15.056,17.99,33.802,28.474,37.088c1.254,0.394,3.586,0.862,7.582,0.862
		c16.065,0,40.775-7.279,47.966-9.51c1.01-0.313,1.801-1.102,2.117-2.11c0.316-1.009,0.117-2.108-0.533-2.94
		C165.489,203.44,149.522,188.207,141.163,185.587z"/>
	<path d="M296.321,135.939c-0.001,0-0.001,0-0.002-0.001c-16.346-20.953-32.311-36.185-40.674-38.807
		c-1.753-0.55-3.765-0.799-5.965-0.799c-10.85,0-26.253,6.067-37.533,12.092c-1.47,0.785-2.098,2.598-1.431,4.125
		c6.584,15.056,17.99,33.804,28.473,37.089c1.252,0.393,3.587,0.861,7.583,0.861c16.062,0,40.775-7.279,47.966-9.511
		c1.009-0.313,1.8-1.102,2.116-2.11C297.169,137.87,296.97,136.772,296.321,135.939z"/>
</g>
<g>
</g>
<g>
</g>
<g>
</g>
<g>
</g>
<g>
</g>
<g>
</g>
<g>
</g>
<g>
</g>
<g>
</g>
<g>
</g>
<g>
</g>
<g>
</g>
<g>
</g>
<g>
</g>
<g>
</g>
</svg>
